<svg width="16" height="15" viewBox="0 0 16 15" fill="none" xmlns="http://www.w3.org/2000/svg">
<path fill-rule="evenodd" clip-rule="evenodd" d="M6.75 14.375C6.75 14.7202 6.47018 15 6.125 15H1.75C1.05964 15 0.5 14.4404 0.5 13.75V1.25C0.5 0.559644 1.05964 0 1.75 0H6.125C6.47018 0 6.75 0.279822 6.75 0.625C6.75 0.970178 6.47018 1.25 6.125 1.25H1.75V13.75H6.125C6.47018 13.75 6.75 14.0298 6.75 14.375ZM15.3172 7.05781L12.1922 3.93281C11.948 3.6886 11.552 3.6886 11.3078 3.93281C11.0636 4.17703 11.0636 4.57297 11.3078 4.81719L13.3664 6.875H6.125C5.77982 6.875 5.5 7.15482 5.5 7.5C5.5 7.84518 5.77982 8.125 6.125 8.125H13.3664L11.3078 10.1828C11.0636 10.427 11.0636 10.823 11.3078 11.0672C11.552 11.3114 11.948 11.3114 12.1922 11.0672L15.3172 7.94219C15.4345 7.82496 15.5005 7.66588 15.5005 7.5C15.5005 7.33412 15.4345 7.17504 15.3172 7.05781Z" fill="#121417"/>
</svg>
