  <svg
                width="16"
                height="15"
                viewBox="0 0 16 15"
                fill="none"
                xmlns="http://www.w3.org/2000/svg"
              >
                <path
                  d="M15.0393 12.9697L12.1184 10.0488C11.9866 9.91699 11.8079 9.84375 11.6204 9.84375H11.1428C11.9514 8.80957 12.4319 7.50879 12.4319 6.09375C12.4319 2.72754 9.70435 0 6.33813 0C2.97192 0 0.244385 2.72754 0.244385 6.09375C0.244385 9.45996 2.97192 12.1875 6.33813 12.1875C7.75317 12.1875 9.05396 11.707 10.0881 10.8984V11.376C10.0881 11.5635 10.1614 11.7422 10.2932 11.874L13.2141 14.7949C13.4895 15.0703 13.9348 15.0703 14.2073 14.7949L15.0364 13.9658C15.3118 13.6904 15.3118 13.2451 15.0393 12.9697ZM6.33813 9.84375C4.26685 9.84375 2.58813 8.16797 2.58813 6.09375C2.58813 4.02246 4.26392 2.34375 6.33813 2.34375C8.40942 2.34375 10.0881 4.01953 10.0881 6.09375C10.0881 8.16504 8.41235 9.84375 6.33813 9.84375Z"
                  fill="white"
                />
</svg>